<?xml version="1.0" encoding="utf-8"?>
<!-- Generator: Adobe Illustrator 24.0.1, SVG Export Plug-In . SVG Version: 6.00 Build 0)  -->
<svg version="1.1" id="Layer_1" xmlns="http://www.w3.org/2000/svg" xmlns:xlink="http://www.w3.org/1999/xlink" x="0px" y="0px"
	 viewBox="0 0 32 32" style="enable-background:new 0 0 32 32;" xml:space="preserve">
<style type="text/css">
	.st0{display:none;}
	.st1{display:inline;}
	.st2{display:inline;clip-path:url(#SVGID_2_);}
</style>
<g class="st0">
	<defs>
		<rect id="SVGID_1_" y="0" width="32" height="32"/>
	</defs>
	<clipPath id="SVGID_2_" class="st1">
		<use xlink:href="#SVGID_1_"  style="overflow:visible;"/>
	</clipPath>
	<g class="st2">
		<path d="M0,18.4c0-1.5,1.2-2.7,2.7-2.7H18v2c0,1.5-1.2,2.7-2.7,2.7H0V18.4z"/>
		<path d="M9.3,32c-1.5,0-2.7-1.2-2.7-2.7v-8.2h2c1.5,0,2.7,1.2,2.7,2.7V32H9.3z"/>
		<path d="M0,0h18.7C26,0,32,6.1,32,13.6H0V0z"/>
		<path d="M16,32c2.1,0,4.2-0.4,6.1-1.2c1.9-0.8,3.7-2,5.2-3.5c1.5-1.5,2.7-3.3,3.5-5.3c0.8-2,1.2-4.1,1.2-6.3h-9.2
			c0,0.9-0.2,1.8-0.5,2.7c-0.3,0.8-0.8,1.6-1.5,2.3s-1.4,1.2-2.2,1.5c-0.8,0.4-1.7,0.5-2.6,0.5V32z"/>
	</g>
</g>
<image style="overflow:visible;enable-background:new    ;" width="233" height="267" xlink:href="EFE81146.png"  transform="matrix(0.1199 0 0 0.1199 2.0375 -7.324218e-06)">
</image>
</svg>
